# xmcd
#
# Track frame offsets:
#	150
#	18812
#	33782
#	46810
#	63850
#	83679
#	107567
#	127526
#	148013
#	175877
#	199679
#	220139
#	238085
#	258398
#
# Disc length: 3599 seconds
#
# Revision: 1
# Processed by: cddbd v1.4PL0 Copyright (c) Steve Scherf et al.
# Submitted via: CDmax 1.8
#
DISCID=ac0e0d0e
DTITLE=Matt Walsh Band - Lonely Days
DYEAR=2000
DGENRE=Blues
TTITLE0=Hometown Boy
TTITLE1=Done A Deal
TTITLE2=Big Legged Woman
TTITLE3=Killing Fields
TTITLE4=Help Me Through The Day
TTITLE5=Boogie Man
TTITLE6=Lonely Days
TTITLE7=Simple Minds
TTITLE8=Meet Me In The Morning
TTITLE9=Crazy Dreams
TTITLE10=Look Over Yonder Wall
TTITLE11=You Make My Life Complete
TTITLE12=Everybody Wants To Go To Heaven
TTITLE13=Hartmuts Wiggel
EXTD=
EXTT0=
EXTT1=
EXTT2=
EXTT3=
EXTT4=
EXTT5=
EXTT6=
EXTT7=
EXTT8=
EXTT9=
EXTT10=
EXTT11=
EXTT12=
EXTT13=
PLAYORDER=
